<?xml version="1.0" encoding="iso-8859-1"?>
<!-- Generator: Adobe Illustrator 17.1.0, SVG Export Plug-In . SVG Version: 6.00 Build 0)  -->
<!DOCTYPE svg PUBLIC "-//W3C//DTD SVG 1.1//EN" "http://www.w3.org/Graphics/SVG/1.1/DTD/svg11.dtd">
<svg version="1.1" id="Capa_1" xmlns="http://www.w3.org/2000/svg" xmlns:xlink="http://www.w3.org/1999/xlink" x="0px" y="0px"
	 viewBox="0 0 295.272 295.272" style="enable-background:new 0 0 295.272 295.272;" xml:space="preserve">
<path id="XMLID_28_" d="M202.136,201.942v46.746c0,4.467-2.701,8.49-6.836,10.182l-87,35.584c-1.341,0.548-2.755,0.818-4.163,0.818
	c-2.154,0-4.292-0.632-6.133-1.867c-3.042-2.043-4.868-5.468-4.868-9.133v-82.33c0-6.075,4.925-11,11-11s11,4.925,11,11v65.946
	l65-26.586v-39.36c0-6.075,4.925-11,11-11S202.136,195.867,202.136,201.942z M289.948,11v58.458c0,6.075-4.925,11-11,11h-11.54
	v26.303c0,3.761-1.921,7.261-5.094,9.28l-108.771,69.225c-1.802,1.146-3.854,1.72-5.906,1.72s-4.104-0.573-5.906-1.72L32.958,116.04
	c-3.173-2.02-5.094-5.52-5.094-9.28V80.458h-11.54c-6.075,0-11-4.925-11-11V11c0-6.075,4.925-11,11-11h262.624
	C285.023,0,289.948,4.925,289.948,11z M245.409,80.458H49.864v20.264l97.774,62.225l97.771-62.224V80.458z M267.948,22H27.324
	v36.458h240.624V22z"/>
<g>
</g>
<g>
</g>
<g>
</g>
<g>
</g>
<g>
</g>
<g>
</g>
<g>
</g>
<g>
</g>
<g>
</g>
<g>
</g>
<g>
</g>
<g>
</g>
<g>
</g>
<g>
</g>
<g>
</g>
</svg>
